<?xml version="1.0" encoding="utf-8"?>
<svg version="1.1" xmlns:xlink="http://www.w3.org/1999/xlink" width="1073px" height="272px" xmlns="http://www.w3.org/2000/svg">
  <g transform="matrix(1 0 0 1 -312 -394 )">
    <path d="M 1072.5 0  L 0.5 0  L 0.5 269.747303543914  C 0 270.448813559322  0.665587958607724 271  1.51269990592662 271.5  L 1070.48730009407 271.5  C 1071.33441204139 271  1072 270.448813559322  1072.5 269.747303543914  L 1072.5 0  Z " fill-rule="nonzero" fill="#ffffff" stroke="none" transform="matrix(1 0 0 1 312 394 )" />
    <path d="M 0.5 0  L 0.5 269.747303543914  C 0 270.448813559322  0.665587958607724 271  1.51269990592662 271.5  L 1070.48730009407 271.5  C 1071.33441204139 271  1072 270.448813559322  1072.5 269.747303543914  L 1072.5 0  " stroke-width="1" stroke="#e9e9e9" fill="none" transform="matrix(1 0 0 1 312 394 )" />
  </g>
</svg>