<?xml version="1.0" encoding="utf-8"?>
<svg version="1.1" xmlns:xlink="http://www.w3.org/1999/xlink" width="60px" height="20px" xmlns="http://www.w3.org/2000/svg">
  <g transform="matrix(1 0 0 1 -552 -277 )">
    <path d="M 553 281  A 3 3 0 0 1 556 278 L 608 278  A 3 3 0 0 1 611 281 L 611 293  A 3 3 0 0 1 608 296 L 556 296  A 3 3 0 0 1 553 293 L 553 281  Z " fill-rule="nonzero" fill="#f5f5f5" stroke="none" fill-opacity="0" />
    <path d="M 552.5 281  A 3.5 3.5 0 0 1 556 277.5 L 608 277.5  A 3.5 3.5 0 0 1 611.5 281 L 611.5 293  A 3.5 3.5 0 0 1 608 296.5 L 556 296.5  A 3.5 3.5 0 0 1 552.5 293 L 552.5 281  Z " stroke-width="1" stroke-dasharray="3,1" stroke="#d9d9d9" fill="none" stroke-dashoffset="0.5" />
  </g>
</svg>