<?xml version="1.0" encoding="utf-8"?>
<svg version="1.1" xmlns:xlink="http://www.w3.org/1999/xlink" width="14px" height="14px" xmlns="http://www.w3.org/2000/svg">
  <g transform="matrix(1 0 0 1 -664 -477 )">
    <path d="M 671 477  C 674.92 477  678 480.08  678 484  C 678 487.92  674.92 491  671 491  C 667.08 491  664 487.92  664 484  C 664 480.08  667.08 477  671 477  Z " fill-rule="nonzero" fill="#ffffff" stroke="none" fill-opacity="0" />
    <path d="M 671 477.5  C 674.64 477.5  677.5 480.36  677.5 484  C 677.5 487.64  674.64 490.5  671 490.5  C 667.36 490.5  664.5 487.64  664.5 484  C 664.5 480.36  667.36 477.5  671 477.5  Z " stroke-width="1" stroke="#d9d9d9" fill="none" />
  </g>
</svg>