<?xml version="1.0" encoding="utf-8"?>
<svg version="1.1" xmlns:xlink="http://www.w3.org/1999/xlink" width="65px" height="40px" xmlns="http://www.w3.org/2000/svg">
  <g transform="matrix(1 0 0 1 -1223 -882 )">
    <path d="M 1224 887  A 4 4 0 0 1 1228 883 L 1283 883  A 4 4 0 0 1 1287 887 L 1287 917  A 4 4 0 0 1 1283 921 L 1228 921  A 4 4 0 0 1 1224 917 L 1224 887  Z " fill-rule="nonzero" fill="#ffffff" stroke="none" />
    <path d="M 1223.5 887  A 4.5 4.5 0 0 1 1228 882.5 L 1283 882.5  A 4.5 4.5 0 0 1 1287.5 887 L 1287.5 917  A 4.5 4.5 0 0 1 1283 921.5 L 1228 921.5  A 4.5 4.5 0 0 1 1223.5 917 L 1223.5 887  Z " stroke-width="1" stroke="#000000" fill="none" stroke-opacity="0.0980392156862745" />
  </g>
</svg>